<svg width="32" height="32" viewBox="0 0 32 32" fill="none" xmlns="http://www.w3.org/2000/svg">
<g clip-path="url(#clip0_214_73)">
<path d="M14 0.998047H17.9966C18.1851 1.02161 18.3728 1.04679 18.5613 1.06791C21.3773 1.38311 23.9123 2.39288 26.1173 4.18335C28.8927 6.44092 30.6217 9.33214 31.2676 12.8578C31.3675 13.4013 31.426 13.9521 31.504 14.4996V15.6499C31.2457 16.2998 30.7582 16.507 30.0749 16.5062C20.6908 16.4932 11.307 16.4902 1.92341 16.4972C1.82267 16.4972 1.72111 16.4972 1.62036 16.4972C0.963881 16.4745 0.501579 16.0098 0.505642 15.3534C0.504928 14.8792 0.528253 14.4053 0.575518 13.9334C0.881822 11.1283 1.88929 8.60182 3.66942 6.40599C5.9281 3.61875 8.82701 1.88272 12.3629 1.23445C12.9032 1.13452 13.4516 1.07603 14 0.998047ZM11.5699 9.30371C11.5699 9.10224 11.5813 8.89752 11.5699 8.70012C11.5285 8.1079 11.0873 7.67247 10.5218 7.65135C9.92386 7.62942 9.43881 8.01448 9.38438 8.62132C9.34172 9.07199 9.34172 9.52568 9.38438 9.97635C9.40762 10.2558 9.54004 10.5148 9.75296 10.6973C9.96587 10.8797 10.2421 10.971 10.5218 10.9512C11.1084 10.9195 11.5431 10.48 11.5781 9.8748C11.5829 9.68633 11.5699 9.49461 11.5699 9.30371ZM20.4259 9.30371C20.4259 9.51492 20.4097 9.72776 20.4259 9.93736C20.4465 10.2115 20.5691 10.4679 20.7697 10.6559C20.9702 10.844 21.234 10.9499 21.5089 10.9528C21.7795 10.9649 22.0444 10.8725 22.2488 10.6949C22.4533 10.5173 22.5816 10.2679 22.6074 9.99828C22.6515 9.53899 22.6515 9.07654 22.6074 8.61726C22.5497 8.01204 22.0614 7.62779 21.4634 7.65135C20.8947 7.6741 20.4592 8.11115 20.4186 8.70743C20.417 8.90402 20.4284 9.1063 20.4284 9.30696L20.4259 9.30371ZM17.0875 9.31914C17.0875 9.07543 17.1061 8.83172 17.0875 8.59532C17.0562 8.33318 16.9296 8.09168 16.7319 7.91674C16.5342 7.7418 16.279 7.64561 16.015 7.64647C15.4503 7.6416 14.9531 8.05266 14.9165 8.59776C14.8873 9.05981 14.8873 9.52324 14.9165 9.98529C14.9498 10.5328 15.4454 10.9536 16.0036 10.9528C16.2729 10.9547 16.5332 10.8565 16.7341 10.6773C16.935 10.498 17.0621 10.2505 17.0907 9.98285C17.1078 9.76595 17.0899 9.54336 17.0899 9.31995L17.0875 9.31914Z" fill="#60340B"/>
<path d="M31.5001 24.0051V27.0296C31.4051 27.4187 31.3376 27.8184 31.2093 28.1953C30.3968 30.5471 28.3526 31.9923 25.8364 31.994C19.2775 31.994 12.7181 31.994 6.15819 31.994C6.00707 31.994 5.85514 31.994 5.70402 31.9826C3.22191 31.8534 1.01929 29.9704 0.627674 27.5194C0.465179 26.5032 0.52124 25.4503 0.500928 24.4129C0.484678 23.5705 0.919353 23.144 1.76026 23.144C6.81549 23.144 11.8713 23.1427 16.9276 23.14C17.2925 23.1347 17.6481 23.2549 17.935 23.4803C18.9969 24.2838 20.0637 25.0799 21.1297 25.8785C21.2646 25.9792 21.4019 26.0775 21.5359 26.1782C22.7473 25.27 23.9441 24.3772 25.1344 23.4771C25.4217 23.2516 25.7783 23.1325 26.1435 23.14C27.4654 23.1489 28.7873 23.1627 30.1092 23.1351C30.7925 23.1229 31.2613 23.3577 31.5001 24.0051Z" fill="#60340B"/>
<path d="M31.5001 20.0701C31.2499 20.7273 30.7616 20.932 30.0775 20.9312C20.6527 20.9187 11.228 20.916 1.80331 20.9231C1.10133 20.9231 0.684529 20.6444 0.537471 20.0822C0.499544 19.933 0.493684 19.7773 0.520274 19.6256C0.546864 19.4739 0.605304 19.3296 0.691739 19.2021C0.778175 19.0746 0.890645 18.9669 1.02174 18.886C1.15284 18.8051 1.29959 18.753 1.45232 18.7329C1.59293 18.7184 1.73429 18.7124 1.87562 18.715C11.2917 18.715 20.7072 18.7123 30.1221 18.7069C30.8014 18.7069 31.2694 18.9352 31.5033 19.5851L31.5001 20.0701Z" fill="#60340B"/>
</g>
<defs>
<clipPath id="clip0_214_73">
<rect width="31" height="31" fill="white" transform="translate(0.5 0.998047)"/>
</clipPath>
</defs>
</svg>
