<svg width="28" height="32" viewBox="0 0 28 32" fill="none" xmlns="http://www.w3.org/2000/svg">
<g clip-path="url(#clip0_228_131)">
<path d="M14.9241 0.998003C15.5823 1.09735 16.2534 1.14437 16.8972 1.30136C22.5928 2.70742 26.1122 6.27565 27.4743 11.956C27.5688 12.3896 27.6349 12.8289 27.6721 13.271C27.7178 13.7018 27.7277 14.1356 27.7573 14.6415C27.6257 14.5451 27.4876 14.4576 27.3441 14.3798C26.9393 14.1993 26.5345 14.0158 26.1183 13.8687C25.9394 13.8057 25.8634 13.7405 25.8451 13.5456C25.6657 11.4855 24.9363 9.51085 23.7327 7.82656C22.3778 5.89422 20.4678 4.41579 18.254 3.58563C16.5467 2.92943 14.7075 2.68716 12.8878 2.87881C10.5855 3.0981 8.40189 3.99964 6.61843 5.4672C4.70379 7.00369 3.32463 9.10332 2.67753 11.4668C2.48425 12.1494 2.41805 12.8721 2.28336 13.5744C2.26586 13.6662 2.20727 13.7921 2.13117 13.8239C1.56199 14.0689 0.984436 14.2941 0.357422 14.5467C0.433516 13.8216 0.457102 13.0564 0.601681 12.314C1.52774 7.54671 4.22299 4.14608 8.64634 2.12118C10.0049 1.50934 11.4627 1.14561 12.9502 1.0473C13.0397 1.03531 13.1283 1.01809 13.2158 0.995728L14.9241 0.998003Z" fill="#60340B"/>
<path d="M16.64 28.3555C17.6825 28.3555 18.7166 28.3942 19.7461 28.3449C20.8716 28.2911 21.8463 27.4758 22.0906 26.5248C21.634 26.5035 21.1501 26.5543 20.7049 26.4489C19.4509 26.1456 18.6504 25.1263 18.6375 23.831C18.6154 21.3685 18.6025 18.906 18.6375 16.4442C18.6702 14.2699 20.9203 13.0315 22.7884 14.1342C23.6574 14.6468 24.082 15.4591 24.0896 16.4541C24.1033 19.5635 24.12 22.6729 24.0835 25.7823C24.0553 28.1773 22.0731 30.1226 19.67 30.181C18.7387 30.2037 17.8073 30.1916 16.8759 30.181C16.6971 30.181 16.6141 30.2386 16.5388 30.3986C15.9856 31.5878 14.7445 32.2074 13.4859 31.9351C12.2722 31.6727 11.3857 30.595 11.3416 29.3293C11.299 28.0878 12.1839 26.9502 13.4425 26.6294C14.6319 26.3261 15.9536 26.9442 16.5 28.0575C16.5487 28.1583 16.5936 28.2569 16.64 28.3555Z" fill="#60340B"/>
<path d="M9.51616 20.1634C9.51616 21.3541 9.52225 22.5447 9.51616 23.7346C9.50855 24.9723 8.78109 26.028 7.71121 26.3776C5.87354 26.9768 4.09066 25.7664 4.0587 23.8393C4.02015 21.3685 4.02015 18.8969 4.0587 16.4245C4.09675 14.2646 6.33315 13.0375 8.19669 14.1273C9.10069 14.6582 9.50551 15.5 9.51312 16.5314C9.52301 17.7426 9.51616 18.953 9.51616 20.1634Z" fill="#60340B"/>
<path d="M2.2583 15.7207V24.5605C1.53693 24.3178 0.990576 23.8613 0.692288 23.1711C0.526321 22.7834 0.433709 22.3684 0.419113 21.9471C0.38411 20.7382 0.400088 19.5271 0.408459 18.3174C0.413785 17.0858 1.17016 16.0241 2.2583 15.7207Z" fill="#60340B"/>
<path d="M25.8923 24.5453V15.7055C26.4479 15.8832 26.9275 16.2416 27.2544 16.7233C27.578 17.1798 27.7487 17.7266 27.7422 18.2856C27.7422 19.5157 27.7521 20.7458 27.7422 21.9759C27.7292 23.1916 26.9721 24.2329 25.8923 24.5453Z" fill="#60340B"/>
</g>
<defs>
<clipPath id="clip0_228_131">
<rect width="27.3953" height="31" fill="white" transform="translate(0.364258 0.998047)"/>
</clipPath>
</defs>
</svg>
