<svg width="32" height="32" viewBox="0 0 32 32" fill="none" xmlns="http://www.w3.org/2000/svg">
<g clip-path="url(#clip0_228_126)">
<path d="M27.2223 23.3806C28.4013 23.3487 29.4057 23.709 30.2463 24.4967C31.0097 25.2111 31.427 26.1057 31.5551 27.1468C31.5975 27.4915 31.4466 27.6992 31.1454 27.8104C31.3999 29.9727 30.4965 31.4835 28.7237 31.9144C27.3164 32.2592 25.3137 31.5835 24.7641 29.2962C24.7463 29.2962 24.72 29.2902 24.7115 29.2962C24.2136 29.8555 23.8547 29.7918 23.5867 29.092C23.5214 28.9196 23.4713 28.7472 23.4306 28.6231C23.1125 28.6576 22.8089 28.7188 22.5043 28.7196C19.8787 28.7271 17.2531 28.7271 14.6275 28.7196C14.3731 28.7196 14.2509 28.7446 14.2034 29.0644C13.9659 30.6432 12.5705 31.8033 10.9801 31.7886C10.2111 31.7851 9.4686 31.5034 8.88555 30.9941C8.30249 30.4848 7.91704 29.7811 7.7983 29.0092C7.78558 28.923 7.76607 28.842 7.7525 28.7714C7.49802 28.7214 7.25203 28.7007 7.0247 28.624C6.06703 28.3025 5.52924 27.3657 5.61152 26.2178C5.67018 25.4339 5.86338 24.6665 6.18239 23.9503C6.49709 23.2358 6.86099 22.5446 7.22149 21.8509C7.25019 21.7995 7.28971 21.7553 7.33723 21.7213C7.38474 21.6873 7.43908 21.6645 7.49633 21.6544C9.99441 21.6449 12.4933 21.6475 14.9914 21.6492C15.0121 21.6525 15.0322 21.6592 15.0508 21.669C14.8871 23.2143 15.1178 24.0821 15.8465 24.5734C15.8753 24.133 15.905 23.7116 15.9313 23.2858C16.0331 21.5478 16.1349 19.8092 16.2367 18.07C16.2672 17.5529 16.1179 17.3719 15.6056 17.3159C14.8379 17.2297 14.0702 17.1487 13.3034 17.0574C13.0919 17.0363 12.8871 16.9699 12.7026 16.8627C12.5181 16.7554 12.358 16.6097 12.2329 16.4351C12.1078 16.2604 12.0206 16.0609 11.9769 15.8495C11.9331 15.6381 11.934 15.4198 11.9793 15.2087C12.4515 12.8738 12.9302 10.5399 13.4154 8.20725C13.63 7.17305 14.4884 6.55857 15.4876 6.68009C16.3885 6.78868 17.062 7.61 17.084 8.59852C17.0944 8.75209 17.154 8.89798 17.2537 9.01392C18.1384 10.0136 19.3022 10.5428 20.5127 10.9961C21.0862 11.2181 21.6975 11.3221 22.3109 11.3021C23.1354 11.2719 23.9616 11.2917 24.7878 11.296C25.8218 11.3021 26.4275 11.9148 26.4334 12.9576C26.4334 13.28 26.4411 13.6032 26.4283 13.9255C26.4165 14.3116 26.2598 14.6785 25.9902 14.9509C25.7207 15.2233 25.3588 15.3807 24.9787 15.3906C24.6394 15.4018 24.306 15.3906 23.9252 15.3906C24.1678 17.2134 24.5537 18.8974 26.0899 20.0583C27.0755 20.8037 27.4589 21.825 27.2672 23.0635C27.2503 23.1574 27.2393 23.2522 27.2223 23.3806ZM20.8443 13.8281C19.2056 13.6392 17.6508 12.9911 16.3537 11.9562C16.229 12.5017 16.1086 12.999 16.0017 13.4989C15.9169 13.9126 16.0119 14.0892 16.4055 14.2409C17.127 14.5178 17.8492 14.7928 18.5719 15.0657C19.4854 15.4104 19.8375 15.9327 19.7408 16.9109C19.5312 19.0387 19.2988 21.164 19.0774 23.2884C19.0147 23.8917 18.9553 24.495 18.8942 25.1129H20.8452L20.8443 13.8281ZM27.9696 30.9389C29.5991 30.9458 30.6984 29.2419 30.0351 27.7441C30.0019 27.6481 29.9417 27.5643 29.8619 27.503C29.782 27.4417 29.6862 27.4056 29.5863 27.3993C28.3301 27.27 27.1459 27.4855 26.0458 28.1345C25.9466 28.1851 25.8642 28.2641 25.8089 28.3619C25.7535 28.4596 25.7276 28.5718 25.7345 28.6843C25.7442 29.2819 25.9832 29.8519 26.4005 30.2731C26.8179 30.6942 27.3806 30.9331 27.9687 30.9389H27.9696ZM8.82383 28.7438C8.8128 29.8478 9.91128 30.8122 11.1082 30.7605C12.2245 30.7139 13.2661 29.709 13.1821 28.7438H8.82383Z" fill="#60340B"/>
<path d="M5.64979 8.22446C6.79266 8.22446 7.93553 8.22446 9.0784 8.22446C10.0963 8.22446 10.7265 8.8648 10.7274 9.89124C10.7274 11.708 10.7274 13.5247 10.7274 15.3414C10.7274 16.3515 10.0929 16.9979 9.103 16.9987C6.79577 16.9987 4.48854 16.9987 2.18131 16.9987C1.21007 16.9987 0.569646 16.3481 0.564556 15.3664C0.561163 13.5279 0.561163 11.6893 0.564556 9.85073C0.564556 8.88549 1.21007 8.22963 2.15757 8.22532C3.32136 8.22015 4.48515 8.22446 5.64979 8.22446Z" fill="#60340B"/>
<path d="M15.2809 20.6133H13.8083C11.6394 20.6133 9.46956 20.6133 7.3006 20.6185C7.20753 20.6262 7.11406 20.6094 7.02932 20.5695C6.94459 20.5296 6.87147 20.4681 6.8171 20.391C6.41979 19.8823 6.18956 19.2599 6.15886 18.6113C6.13765 18.1683 6.32257 17.9649 6.75263 17.9649C9.39803 17.9649 12.0437 17.9649 14.6897 17.9649C15.0519 17.9649 15.2665 18.1261 15.2758 18.4553C15.2945 19.1585 15.2809 19.8661 15.2809 20.6133Z" fill="#60340B"/>
<path d="M14.2866 3.56541C14.2918 2.88029 14.5644 2.22527 15.0445 1.74421C15.5247 1.26314 16.1732 0.995388 16.8475 0.999747C17.1817 1.00256 17.512 1.07223 17.8197 1.20478C18.1274 1.33732 18.4064 1.53014 18.6407 1.77223C18.875 2.01432 19.0601 2.30093 19.1855 2.6157C19.3108 2.93048 19.3738 3.26725 19.371 3.60678C19.3623 4.28665 19.0904 4.93568 18.6141 5.41331C18.1378 5.89093 17.4955 6.15871 16.8263 6.15866C16.4919 6.15798 16.1609 6.09035 15.8522 5.95962C15.5436 5.8289 15.2633 5.63766 15.0275 5.39682C14.7916 5.15598 14.6048 4.87027 14.4777 4.55602C14.3505 4.24178 14.2856 3.90516 14.2866 3.56541Z" fill="#60340B"/>
</g>
<defs>
<clipPath id="clip0_228_126">
<rect width="31" height="31" fill="white" transform="translate(0.562012 0.998047)"/>
</clipPath>
</defs>
</svg>
